<svg width="54" height="53" viewBox="0 0 54 53" fill="none" xmlns="http://www.w3.org/2000/svg">
<path d="M37.8378 19.3404C41.0952 21.6772 45.0856 23.0521 49.3955 23.0521V14.729C48.5799 14.7292 47.7663 14.6439 46.9683 14.4742V21.0256C42.6588 21.0256 38.6688 19.6507 35.4106 17.3141V34.2991C35.4106 42.7958 28.5471 49.6833 20.081 49.6833C16.9222 49.6833 13.9861 48.7249 11.5471 47.0812C14.3308 49.9376 18.2129 51.7096 22.5077 51.7096C30.9743 51.7096 37.8381 44.8221 37.8381 36.325V19.3404H37.8378ZM40.832 10.9434C39.1673 9.11826 38.0743 6.75956 37.8378 4.15192V3.08139H35.5377C36.1166 6.39571 38.0914 9.22726 40.832 10.9434ZM16.9019 40.5611C15.9718 39.3372 15.4692 37.8401 15.4714 36.3007C15.4714 32.4146 18.6108 29.2637 22.4838 29.2637C23.2056 29.2635 23.9231 29.3745 24.611 29.5935V21.0844C23.8071 20.9738 22.9958 20.9269 22.1848 20.9441V27.5672C21.4964 27.3481 20.7786 27.2369 20.0566 27.2376C16.1836 27.2376 13.0444 30.3881 13.0444 34.2747C13.0444 37.0229 14.6135 39.4021 16.9019 40.5611Z" fill="white"/>
<path d="M35.4105 17.3139C38.6688 19.6505 42.6587 21.0255 46.9683 21.0255V14.474C44.5627 13.9598 42.4331 12.6982 40.832 10.9434C38.0912 9.22709 36.1166 6.39553 35.5376 3.08139H29.4958V36.3247C29.4822 40.2002 26.3482 43.3382 22.4834 43.3382C20.206 43.3382 18.1827 42.2487 16.9013 40.5611C14.6132 39.4021 13.044 37.0227 13.044 34.2749C13.044 30.3887 16.1832 27.2377 20.0562 27.2377C20.7983 27.2377 21.5135 27.3537 22.1844 27.5674V20.9443C13.8671 21.1167 7.17798 27.9369 7.17798 36.3249C7.17798 40.5121 8.84373 44.3079 11.5473 47.0814C13.9862 48.7249 16.9223 49.6835 20.0812 49.6835C28.5474 49.6835 35.4107 42.7957 35.4107 34.2991V17.3139H35.4105Z" fill="white"/>
<path d="M46.9683 14.4741V12.7026C44.7991 12.7059 42.6724 12.0962 40.832 10.9433C42.4612 12.7334 44.6066 13.9677 46.9683 14.4741ZM35.5376 3.08144C35.4824 2.7647 35.44 2.44587 35.4106 2.12582V1.0553H27.0685V34.299C27.0552 38.1739 23.9214 41.312 20.0563 41.312C18.9215 41.312 17.8502 41.0416 16.9014 40.5613C18.1828 42.2488 20.206 43.3381 22.4835 43.3381C26.3479 43.3381 29.4824 40.2004 29.4959 36.3249V3.08144H35.5376ZM22.1848 20.9443V19.0585C21.4878 18.9629 20.785 18.9149 20.0814 18.9152C11.6145 18.9151 4.75098 25.8029 4.75098 34.299C4.75098 39.6255 7.44845 44.3198 11.5475 47.0811C8.84393 44.3078 7.17818 40.5118 7.17818 36.3247C7.17818 27.937 13.8672 21.1168 22.1848 20.9443Z" fill="white"/>
</svg>
